<?xml version="1.0" encoding="iso-8859-1"?>
<!-- Generator: Adobe Illustrator 19.0.0, SVG Export Plug-In . SVG Version: 6.00 Build 0)  -->
<svg version="1.1" id="Layer_1" xmlns="http://www.w3.org/2000/svg" xmlns:xlink="http://www.w3.org/1999/xlink" x="0px" y="0px"
	 viewBox="0 0 512 512" style="enable-background:new 0 0 512 512;" xml:space="preserve">
<rect x="23.912" y="174.418" style="fill:#D0FBFD;" width="464.176" height="135.033"/>
<g>
	<path style="fill:#78E3EC;" d="M306.637,407.912H158.945c-4.661,0-8.44-3.779-8.44-8.44s3.779-8.44,8.44-8.44h147.692
		c4.661,0,8.44,3.779,8.44,8.44S311.298,407.912,306.637,407.912z"/>
	<path style="fill:#78E3EC;" d="M454.33,362.901H158.945c-4.661,0-8.44-3.779-8.44-8.44s3.779-8.44,8.44-8.44H454.33
		c4.661,0,8.44,3.779,8.44,8.44S458.991,362.901,454.33,362.901z"/>
</g>
<g>
	<path style="fill:#50D1DD;" d="M306.637,272.879H158.945c-4.661,0-8.44-3.779-8.44-8.44s3.779-8.44,8.44-8.44h147.692
		c4.661,0,8.44,3.779,8.44,8.44S311.298,272.879,306.637,272.879z"/>
	<path style="fill:#50D1DD;" d="M454.33,227.868H158.945c-4.661,0-8.44-3.779-8.44-8.44c0-4.661,3.779-8.44,8.44-8.44H454.33
		c4.661,0,8.44,3.779,8.44,8.44C462.769,224.089,458.991,227.868,454.33,227.868z"/>
</g>
<polygon style="fill:#27467A;" points="488.088,0 488.088,135.033 353.055,135.033 330.549,67.516 353.055,0 "/>
<polygon style="fill:#78E3EC;" points="353.055,0 353.055,135.033 319.297,135.033 296.791,67.516 319.297,0 "/>
<g>
	<path style="fill:#FFFFFF;" d="M460.297,95.307l-23.072-23.073L425.29,84.171l23.072,23.072c1.647,1.647,3.808,2.472,5.967,2.472
		c2.159,0,4.32-0.824,5.967-2.472C463.593,103.947,463.593,98.602,460.297,95.307z"/>
	<path style="fill:#FFFFFF;" d="M412.849,94.268c-9.209,0-17.866-3.586-24.378-10.098c-13.441-13.441-13.441-35.312,0-48.755
		c6.512-6.512,15.169-10.097,24.378-10.097c9.208,0,17.866,3.586,24.377,10.097c6.512,6.512,10.098,15.169,10.098,24.378
		s-3.586,17.866-10.098,24.377C430.715,90.681,422.057,94.268,412.849,94.268z M412.849,42.198c-4.7,0-9.119,1.83-12.442,5.154
		c-6.86,6.861-6.861,18.024,0,24.884c3.324,3.324,7.742,5.154,12.442,5.154c4.7,0,9.118-1.83,12.442-5.154
		c3.324-3.324,5.154-7.742,5.154-12.442s-1.83-9.119-5.154-12.442C421.967,44.028,417.548,42.198,412.849,42.198z"/>
</g>
<polygon style="fill:#2F5E88;" points="125.187,343.209 125.187,410.725 102.681,410.725 80.176,376.967 102.681,343.209 "/>
<rect x="57.67" y="343.209" style="fill:#367596;" width="45.011" height="67.516"/>
<g>
	<path style="fill:#78E3EC;" d="M306.637,509.187H158.945c-4.661,0-8.44-3.779-8.44-8.44s3.779-8.44,8.44-8.44h147.692
		c4.661,0,8.44,3.779,8.44,8.44S311.298,509.187,306.637,509.187z"/>
	<path style="fill:#78E3EC;" d="M454.33,464.176H158.945c-4.661,0-8.44-3.779-8.44-8.44s3.779-8.44,8.44-8.44H454.33
		c4.661,0,8.44,3.779,8.44,8.44S458.991,464.176,454.33,464.176z"/>
</g>
<polygon style="fill:#2F5E88;" points="125.187,444.484 125.187,512 102.681,512 80.176,478.242 102.681,444.484 "/>
<rect x="57.67" y="444.484" style="fill:#367596;" width="45.011" height="67.516"/>
<polygon style="fill:#111449;" points="125.187,208.176 125.187,275.692 102.681,275.692 80.176,241.934 102.681,208.176 "/>
<rect x="57.67" y="208.176" style="fill:#27467A;" width="45.011" height="67.516"/>
<rect x="23.912" style="fill:#A0F6FA;" width="295.385" height="135.033"/>
<g>
</g>
<g>
</g>
<g>
</g>
<g>
</g>
<g>
</g>
<g>
</g>
<g>
</g>
<g>
</g>
<g>
</g>
<g>
</g>
<g>
</g>
<g>
</g>
<g>
</g>
<g>
</g>
<g>
</g>
</svg>
